<?xml version="1.0" encoding="UTF-8" standalone="no"?>
<!DOCTYPE svg PUBLIC "-//W3C//DTD SVG 1.1//EN" "http://www.w3.org/Graphics/SVG/1.1/DTD/svg11.dtd">
<svg width="100%" height="100%" viewBox="0 0 410 410" version="1.1" xmlns="http://www.w3.org/2000/svg" xmlns:xlink="http://www.w3.org/1999/xlink" xml:space="preserve" xmlns:serif="http://www.serif.com/" style="fill-rule:evenodd;clip-rule:evenodd;stroke-linecap:round;stroke-linejoin:round;stroke-miterlimit:1.5;">
    <g transform="matrix(1,0,0,1,5,5)">
        <path id="Die-Base" serif:id="Die Base" d="M363.386,0C383.607,0 400,16.393 400,36.614L400,363.386C400,383.607 383.607,400 363.386,400L36.614,400C16.393,400 0,383.607 -0,363.386L0,36.614C0,16.393 16.393,0 36.614,0L363.386,0Z" style="fill:white;stroke:black;stroke-width:10px;"/>
        <g id="_6" serif:id="6">
            <g id="_1" serif:id="1" transform="matrix(1.02941,0,0,1.02941,153.796,20.2833)">
                <circle cx="155.603" cy="174.582" r="35.948" style="stroke:black;stroke-width:4.86px;"/>
            </g>
            <g id="_11" serif:id="1" transform="matrix(1.02941,0,0,1.02941,-74.1546,20.2833)">
                <circle cx="155.603" cy="174.582" r="35.948" style="stroke:black;stroke-width:4.86px;"/>
            </g>
            <g id="_12" serif:id="1" transform="matrix(1.02941,0,0,1.02941,-74.1546,134.259)">
                <circle cx="155.603" cy="174.582" r="35.948" style="stroke:black;stroke-width:4.86px;"/>
            </g>
            <g id="_13" serif:id="1" transform="matrix(1.02941,0,0,1.02941,153.796,-93.6921)">
                <circle cx="155.603" cy="174.582" r="35.948" style="stroke:black;stroke-width:4.86px;"/>
            </g>
            <g id="_14" serif:id="1" transform="matrix(1.02941,0,0,1.02941,-74.1546,-93.6921)">
                <circle cx="155.603" cy="174.582" r="35.948" style="stroke:black;stroke-width:4.86px;"/>
            </g>
            <g id="_15" serif:id="1" transform="matrix(1.02941,0,0,1.02941,153.796,134.259)">
                <circle cx="155.603" cy="174.582" r="35.948" style="stroke:black;stroke-width:4.86px;"/>
            </g>
        </g>
    </g>
</svg>
